<?xml version="1.0" encoding="utf-8"?>
<!-- Generator: Adobe Illustrator 15.0.0, SVG Export Plug-In . SVG Version: 6.00 Build 0)  -->
<!DOCTYPE svg PUBLIC "-//W3C//DTD SVG 1.1//EN" "http://www.w3.org/Graphics/SVG/1.1/DTD/svg11.dtd">
<svg version="1.1" id="Capa_1" xmlns="http://www.w3.org/2000/svg" xmlns:xlink="http://www.w3.org/1999/xlink" x="0px" y="0px"
	 width="127.667px" height="147.5px" viewBox="0 0 127.667 147.5" enable-background="new 0 0 127.667 147.5" xml:space="preserve">
<polygon fill="#491DED" points="63.873,0.027 0.032,36.886 0.032,110.602 63.873,147.46 127.712,110.602 127.712,36.886 "/>
<polygon fill="#76A5ED" points="20.752,99.182 35.044,107.434 35.044,57.078 20.752,48.826 "/>
<polygon fill="#67F291" points="63.873,40.473 63.873,23.607 20.572,48.606 35.179,57.039 49.786,48.606 49.786,48.606 "/>
<polygon fill="#6FC1FF" points="107.173,65.511 107.173,48.645 63.873,73.644 78.479,82.078 93.087,73.644 93.087,73.644 "/>
<polygon fill="#9885FF" points="92.619,57.009 107.173,48.606 63.873,23.607 63.873,40.413 78.063,48.606 "/>
<polygon fill="#67F291" points="63.826,73.594 63.826,90.459 107.126,65.46 92.52,57.028 77.912,65.46 77.912,65.46 "/>
<polygon fill="#9885FF" points="78.318,81.949 78.354,81.928 35.054,56.928 35.054,73.734 45.632,79.842 45.659,79.9 80.201,99.841 
	107.126,115.389 107.126,98.582 "/>
<g>
	<polygon fill="#6FC1FF" points="63.931,90.54 63.793,73.641 78.495,81.97 	"/>
</g>
</svg>
